<svg width="221" height="231" viewBox="596 323 221 231" fill="none" xmlns="http://www.w3.org/2000/svg">
  <path opacity="0.08" d="M630.873 553.208V503.714C619.83 493.738 611.257 482.084 605.154 468.751C599.051 455.418 596 441.365 596 426.594C596 397.818 606.171 373.358 626.514 353.215C646.857 333.072 671.558 323 700.619 323C724.837 323 746.294 330.05 764.989 344.15C783.685 358.251 795.842 376.619 801.461 399.257L816.573 458.247C817.541 461.892 816.863 465.202 814.538 468.175C812.214 471.149 809.114 472.635 805.239 472.635H781.99V507.167C781.99 513.497 779.714 518.917 775.161 523.425C770.608 527.933 765.135 530.188 758.741 530.188H735.493V553.208H712.244V507.167H758.741V449.615H790.127L779.084 405.012C774.628 387.554 765.135 373.358 750.604 362.423C736.074 351.488 719.412 346.021 700.619 346.021C678.146 346.021 658.965 353.79 643.079 369.329C627.192 384.868 619.249 403.765 619.249 426.018C619.249 437.529 621.622 448.464 626.369 458.823C631.115 469.182 637.848 478.391 646.566 486.448L654.122 493.354V553.208H630.873ZM688.995 472.635H712.244L713.987 458.247C715.537 457.672 716.942 457 718.201 456.233C719.461 455.466 720.575 454.602 721.543 453.643L734.911 459.398L746.536 439.831L734.911 431.198C735.299 429.663 735.493 428.128 735.493 426.594C735.493 425.059 735.299 423.524 734.911 421.99L746.536 413.357L734.911 393.789L721.543 399.544C720.575 398.585 719.461 397.722 718.201 396.954C716.942 396.187 715.537 395.516 713.987 394.94L712.244 380.552H688.995L687.251 394.94C685.701 395.516 684.297 396.187 683.038 396.954C681.778 397.722 680.664 398.585 679.696 399.544L666.328 393.789L654.703 413.357L666.328 421.99C665.94 423.524 665.746 425.059 665.746 426.594C665.746 428.128 665.94 429.663 666.328 431.198L654.703 439.831L666.328 459.398L679.696 453.643C680.664 454.602 681.778 455.466 683.038 456.233C684.297 457 685.701 457.672 687.251 458.247L688.995 472.635ZM700.619 443.859C695.776 443.859 691.659 442.181 688.269 438.824C684.878 435.466 683.183 431.39 683.183 426.594C683.183 421.798 684.878 417.721 688.269 414.364C691.659 411.007 695.776 409.328 700.619 409.328C705.463 409.328 709.58 411.007 712.97 414.364C716.361 417.721 718.056 421.798 718.056 426.594C718.056 431.39 716.361 435.466 712.97 438.824C709.58 442.181 705.463 443.859 700.619 443.859Z" fill="#014AC6"/>
</svg>
