<svg preserveAspectRatio="none" overflow="visible" style="display: block;" width="128" height="128" viewBox="0 0 128 128" fill="none" xmlns="http://www.w3.org/2000/svg">
<g id="schedule">
<mask id="mask0_0_14" style="mask-type:alpha" maskUnits="userSpaceOnUse" x="0" y="0" width="128" height="128">
<rect id="Bounding box" width="128" height="128" fill="#D9D9D9"/>
</mask>
<g mask="url(#mask0_0_14)">
<path id="schedule_2" d="M69.3332 61.867V42.667C69.3332 41.1559 68.8221 39.8892 67.7998 38.867C66.7776 37.8448 65.5109 37.3337 63.9998 37.3337C62.4887 37.3337 61.2221 37.8448 60.1998 38.867C59.1776 39.8892 58.6665 41.1559 58.6665 42.667V63.867C58.6665 64.5781 58.7998 65.267 59.0665 65.9337C59.3332 66.6003 59.7332 67.2003 60.2665 67.7337L77.8665 85.3337C78.8443 86.3114 80.0887 86.8003 81.5998 86.8003C83.1109 86.8003 84.3554 86.3114 85.3332 85.3337C86.3109 84.3559 86.7998 83.1114 86.7998 81.6003C86.7998 80.0892 86.3109 78.8448 85.3332 77.867L69.3332 61.867ZM63.9998 117.334C56.6221 117.334 49.6887 115.934 43.1998 113.134C36.7109 110.334 31.0665 106.534 26.2665 101.734C21.4665 96.9337 17.6665 91.2892 14.8665 84.8003C12.0665 78.3114 10.6665 71.3781 10.6665 64.0003C10.6665 56.6225 12.0665 49.6892 14.8665 43.2003C17.6665 36.7114 21.4665 31.067 26.2665 26.267C31.0665 21.467 36.7109 17.667 43.1998 14.867C49.6887 12.067 56.6221 10.667 63.9998 10.667C71.3776 10.667 78.3109 12.067 84.7998 14.867C91.2887 17.667 96.9332 21.467 101.733 26.267C106.533 31.067 110.333 36.7114 113.133 43.2003C115.933 49.6892 117.333 56.6225 117.333 64.0003C117.333 71.3781 115.933 78.3114 113.133 84.8003C110.333 91.2892 106.533 96.9337 101.733 101.734C96.9332 106.534 91.2887 110.334 84.7998 113.134C78.3109 115.934 71.3776 117.334 63.9998 117.334Z" fill="#FB923C" fill-opacity="0.08"/>
</g>
</g>
</svg>
